Topmarks-Book-FF.ufo
<glyph name="ampersand" format="1">
  <advance width="1576"/>
  <unicode hex="0026"/>
  <outline>
    <contour>
      <point x="655" y="-24" type="curve" smooth="yes"/>
      <point x="866" y="-24"/>
      <point x="1005" y="71"/>
      <point x="1112" y="187" type="curve"/>
      <point x="1193" y="101"/>
      <point x="1269" y="10"/>
      <point x="1409" y="-12" type="curve"/>
      <point x="1533" y="87" type="line"/>
      <point x="1494" y="96"/>
      <point x="1459" y="105"/>
      <point x="1430" y="115" type="curve" smooth="yes"/>
      <point x="1327" y="151"/>
      <point x="1266" y="210"/>
      <point x="1197" y="286" type="curve"/>
      <point x="1300" y="430"/>
      <point x="1379" y="629"/>
      <point x="1387" y="869" type="curve"/>
      <point x="1230" y="890" type="line"/>
      <point x="1230" y="848"/>
      <point x="1226" y="806"/>
      <point x="1219" y="761" type="curve" smooth="yes"/>
      <point x="1199" y="622"/>
      <point x="1153" y="496"/>
      <point x="1092" y="401" type="curve"/>
      <point x="713" y="825" type="line"/>
      <point x="836" y="901"/>
      <point x="994" y="1014"/>
      <point x="994" y="1190" type="curve" smooth="yes"/>
      <point x="994" y="1376"/>
      <point x="850" y="1483"/>
      <point x="655" y="1483" type="curve" smooth="yes"/>
      <point x="475" y="1483"/>
      <point x="328" y="1390"/>
      <point x="328" y="1190" type="curve" smooth="yes"/>
      <point x="328" y="1041"/>
      <point x="423" y="948"/>
      <point x="504" y="858" type="curve"/>
      <point x="365" y="766"/>
      <point x="155" y="658"/>
      <point x="155" y="401" type="curve" smooth="yes"/>
      <point x="155" y="139"/>
      <point x="366" y="-24"/>
    </contour>
    <contour>
      <point x="652" y="126" type="curve" smooth="yes"/>
      <point x="482" y="126"/>
      <point x="325" y="203"/>
      <point x="325" y="409" type="curve" smooth="yes"/>
      <point x="325" y="588"/>
      <point x="465" y="681"/>
      <point x="595" y="755" type="curve"/>
      <point x="1013" y="292" type="line"/>
      <point x="926" y="197"/>
      <point x="824" y="126"/>
    </contour>
    <contour>
      <point x="619" y="921" type="curve"/>
      <point x="546" y="994"/>
      <point x="485" y="1057"/>
      <point x="485" y="1186" type="curve" smooth="yes"/>
      <point x="485" y="1297"/>
      <point x="563" y="1349"/>
      <point x="663" y="1349" type="curve" smooth="yes"/>
      <point x="761" y="1349"/>
      <point x="840" y="1296"/>
      <point x="840" y="1186" type="curve" smooth="yes"/>
      <point x="840" y="1065"/>
      <point x="719" y="981"/>
    </contour>
  </outline>
</glyph>
<glyph name="parenright" format="1">
  <advance width="636"/>
  <unicode hex="0029"/>
  <outline>
    <contour>
      <point x="86" y="-214" type="line"/>
      <point x="421" y="320"/>
      <point x="437" y="993"/>
      <point x="82" y="1551" type="curve"/>
      <point x="229" y="1551" type="line"/>
      <point x="608" y="956"/>
      <point x="596" y="355"/>
      <point x="235" y="-214" type="curve"/>
    </contour>
  </outline>
</glyph>
<glyph name="asterisk" format="1">
  <advance width="1120"/>
  <unicode hex="002A"/>
  <outline>
    <contour>
      <point x="734" y="742" type="line"/>
      <point x="576" y="1008" type="line"/>
      <point x="421" y="740" type="line"/>
      <point x="297" y="815" type="line"/>
      <point x="494" y="1063" type="line"/>
      <point x="202" y="1151" type="line"/>
      <point x="243" y="1276" type="line"/>
      <point x="525" y="1153" type="line"/>
      <point x="489" y="1456" type="line"/>
      <point x="643" y="1456" type="line"/>
      <point x="622" y="1158" type="line"/>
      <point x="854" y="1279" type="line"/>
      <point x="918" y="1154" type="line"/>
      <point x="656" y="1066" type="line"/>
      <point x="860" y="815" type="line"/>
    </contour>
  </outline>
</glyph>
<glyph name="one" format="1">
  <advance width="819"/>
  <unicode hex="0031"/>
  <outline>
    <contour>
      <point x="391" y="0" type="line"/>
      <point x="563" y="0" type="line"/>
      <point x="563" y="1456" type="line"/>
      <point x="398" y="1456" type="line"/>
      <point x="272" y="1456" type="line"/>
      <point x="272" y="1308" type="line"/>
      <point x="391" y="1308" type="line"/>
    </contour>
  </outline>
</glyph>
<glyph name="seven" format="1">
  <advance width="1244"/>
  <unicode hex="0037"/>
  <outline>
    <contour>
      <point x="395" y="0" type="line"/>
      <point x="919" y="1311" type="line"/>
      <point x="197" y="1311" type="line"/>
      <point x="197" y="1456" type="line"/>
      <point x="1119" y="1456" type="line"/>
      <point x="1119" y="1365" type="line"/>
      <point x="581" y="0" type="line"/>
    </contour>
  </outline>
</glyph>
<glyph name="eight" format="1">
  <advance width="1244"/>
  <unicode hex="0038"/>
  <outline>
    <contour>
      <point x="621" y="-24" type="curve" smooth="yes"/>
      <point x="345" y="-24"/>
      <point x="148" y="133"/>
      <point x="148" y="377" type="curve" smooth="yes"/>
      <point x="148" y="590"/>
      <point x="277" y="714"/>
      <point x="450" y="767" type="curve"/>
      <point x="298" y="816"/>
      <point x="183" y="928"/>
      <point x="183" y="1121" type="curve" smooth="yes"/>
      <point x="183" y="1381"/>
      <point x="395" y="1480"/>
      <point x="621" y="1480" type="curve" smooth="yes"/>
      <point x="880" y="1480"/>
      <point x="1061" y="1345"/>
      <point x="1061" y="1121" type="curve" smooth="yes"/>
      <point x="1061" y="928"/>
      <point x="937" y="816"/>
      <point x="785" y="767" type="curve"/>
      <point x="958" y="714"/>
      <point x="1096" y="590"/>
      <point x="1096" y="377" type="curve" smooth="yes"/>
      <point x="1096" y="101"/>
      <point x="886" y="-24"/>
    </contour>
    <contour>
      <point x="621" y="120" type="curve" smooth="yes"/>
      <point x="803" y="120"/>
      <point x="919" y="219"/>
      <point x="919" y="390" type="curve" smooth="yes"/>
      <point x="919" y="577"/>
      <point x="772" y="661"/>
      <point x="621" y="693" type="curve"/>
      <point x="458" y="659"/>
      <point x="325" y="563"/>
      <point x="325" y="390" type="curve" smooth="yes"/>
      <point x="325" y="211"/>
      <point x="448" y="120"/>
    </contour>
    <contour>
      <point x="621" y="840" type="curve"/>
      <point x="772" y="869"/>
      <point x="890" y="947"/>
      <point x="890" y="1116" type="curve" smooth="yes"/>
      <point x="890" y="1272"/>
      <point x="771" y="1344"/>
      <point x="621" y="1344" type="curve" smooth="yes"/>
      <point x="460" y="1344"/>
      <point x="354" y="1259"/>
      <point x="354" y="1116" type="curve" smooth="yes"/>
      <point x="354" y="947"/>
      <point x="470" y="869"/>
    </contour>
  </outline>
</glyph>
<glyph name="colon" format="1">
  <advance width="550"/>
  <unicode hex="003A"/>
  <outline>
    <contour>
      <point x="169" y="0" type="line"/>
      <point x="169" y="210" type="line"/>
      <point x="386" y="210" type="line"/>
      <point x="386" y="0" type="line"/>
    </contour>
    <contour>
      <point x="169" y="816" type="line"/>
      <point x="169" y="1026" type="line"/>
      <point x="386" y="1026" type="line"/>
      <point x="386" y="816" type="line"/>
    </contour>
  </outline>
</glyph>
<glyph name="at" format="1">
  <advance width="1859"/>
  <unicode hex="0040"/>
  <outline>
    <contour>
      <point x="966" y="-61" type="curve" smooth="yes"/>
      <point x="1218" y="-61"/>
      <point x="1418" y="31"/>
      <point x="1541" y="170" type="curve"/>
      <point x="1484" y="230" type="line"/>
      <point x="1365" y="124"/>
      <point x="1232" y="40"/>
      <point x="971" y="40" type="curve" smooth="yes"/>
      <point x="565" y="40"/>
      <point x="277" y="309"/>
      <point x="277" y="725" type="curve" smooth="yes"/>
      <point x="277" y="1128"/>
      <point x="573" y="1430"/>
      <point x="968" y="1430" type="curve" smooth="yes"/>
      <point x="1311" y="1430"/>
      <point x="1621" y="1207"/>
      <point x="1621" y="842" type="curve" smooth="yes"/>
      <point x="1621" y="573"/>
      <point x="1482" y="385"/>
      <point x="1311" y="385" type="curve" smooth="yes"/>
      <point x="1253" y="385"/>
      <point x="1232" y="415"/>
      <point x="1232" y="471" type="curve" smooth="yes"/>
      <point x="1232" y="541"/>
      <point x="1285" y="756"/>
      <point x="1371" y="1152" type="curve"/>
      <point x="1231" y="1152" type="line"/>
      <point x="1213" y="1067" type="line"/>
      <point x="1176" y="1136"/>
      <point x="1095" y="1183"/>
      <point x="993" y="1183" type="curve" smooth="yes"/>
      <point x="751" y="1183"/>
      <point x="526" y="941"/>
      <point x="526" y="655" type="curve" smooth="yes"/>
      <point x="526" y="493"/>
      <point x="607" y="302"/>
      <point x="826" y="302" type="curve" smooth="yes"/>
      <point x="937" y="302"/>
      <point x="1077" y="392"/>
      <point x="1133" y="525" type="curve"/>
      <point x="1133" y="399"/>
      <point x="1193" y="310"/>
      <point x="1311" y="310" type="curve" smooth="yes"/>
      <point x="1532" y="310"/>
      <point x="1733" y="525"/>
      <point x="1733" y="839" type="curve" smooth="yes"/>
      <point x="1733" y="1253"/>
      <point x="1384" y="1524"/>
      <point x="970" y="1524" type="curve" smooth="yes"/>
      <point x="520" y="1524"/>
      <point x="150" y="1191"/>
      <point x="150" y="727" type="curve" smooth="yes"/>
      <point x="150" y="264"/>
      <point x="508" y="-61"/>
    </contour>
    <contour>
      <point x="852" y="410" type="curve" smooth="yes"/>
      <point x="741" y="410"/>
      <point x="665" y="488"/>
      <point x="665" y="635" type="curve" smooth="yes"/>
      <point x="665" y="878"/>
      <point x="813" y="1088"/>
      <point x="996" y="1088" type="curve" smooth="yes"/>
      <point x="1107" y="1088"/>
      <point x="1161" y="981"/>
      <point x="1161" y="866" type="curve" smooth="yes"/>
      <point x="1161" y="667"/>
      <point x="1032" y="410"/>
    </contour>
  </outline>
</glyph>
<glyph name="H" format="1">
  <advance width="1514"/>
  <unicode hex="0048"/>
  <outline>
    <contour>
      <point x="200" y="0" type="line"/>
      <point x="200" y="1456" type="line"/>
      <point x="372" y="1456" type="line"/>
      <point x="372" y="822" type="line"/>
      <point x="1142" y="822" type="line"/>
      <point x="1142" y="1456" type="line"/>
      <point x="1314" y="1456" type="line"/>
      <point x="1314" y="0" type="line"/>
      <point x="1142" y="0" type="line"/>
      <point x="1142" y="674" type="line"/>
      <point x="372" y="674" type="line"/>
      <point x="372" y="0" type="line"/>
    </contour>
  </outline>
</glyph>
<glyph name="bracketleft" format="1">
  <advance width="638"/>
  <unicode hex="005B"/>
  <outline>
    <contour>
      <point x="201" y="-200" type="line"/>
      <point x="201" y="1510" type="line"/>
      <point x="557" y="1510" type="line"/>
      <point x="557" y="1388" type="line"/>
      <point x="364" y="1388" type="line"/>
      <point x="364" y="-78" type="line"/>
      <point x="558" y="-78" type="line"/>
      <point x="558" y="-200" type="line"/>
    </contour>
  </outline>
</glyph>
<glyph name="grave" format="1">
  <advance width="603"/>
  <unicode hex="0060"/>
  <outline>
    <contour>
      <point x="403" y="1160" type="line"/>
      <point x="71" y="1480" type="line"/>
      <point x="285" y="1480" type="line"/>
      <point x="532" y="1160" type="line"/>
    </contour>
  </outline>
</glyph>
<glyph name="c" format="1">
  <advance width="1032"/>
  <unicode hex="0063"/>
  <outline>
    <contour>
      <point x="605" y="-22" type="curve" smooth="yes"/>
      <point x="730" y="-22"/>
      <point x="857" y="21"/>
      <point x="960" y="102" type="curve"/>
      <point x="904" y="227" type="line"/>
      <point x="828" y="158"/>
      <point x="719" y="114"/>
      <point x="619" y="114" type="curve" smooth="yes"/>
      <point x="435" y="114"/>
      <point x="282" y="253"/>
      <point x="282" y="510" type="curve" smooth="yes"/>
      <point x="282" y="778"/>
      <point x="449" y="916"/>
      <point x="624" y="916" type="curve" smooth="yes"/>
      <point x="712" y="916"/>
      <point x="807" y="878"/>
      <point x="877" y="810" type="curve"/>
      <point x="939" y="928" type="line"/>
      <point x="849" y="1015"/>
      <point x="726" y="1052"/>
      <point x="611" y="1052" type="curve" smooth="yes"/>
      <point x="349" y="1052"/>
      <point x="112" y="851"/>
      <point x="112" y="511" type="curve" smooth="yes"/>
      <point x="112" y="179"/>
      <point x="340" y="-22"/>
    </contour>
  </outline>
</glyph>
<glyph name="e" format="1">
  <advance width="1082"/>
  <unicode hex="0065"/>
  <outline>
    <contour>
      <point x="612" y="-22" type="curve" smooth="yes"/>
      <point x="768" y="-22"/>
      <point x="878" y="25"/>
      <point x="998" y="122" type="curve"/>
      <point x="930" y="232" type="line"/>
      <point x="865" y="179"/>
      <point x="774" y="114"/>
      <point x="623" y="114" type="curve" smooth="yes"/>
      <point x="439" y="114"/>
      <point x="311" y="233"/>
      <point x="287" y="445" type="curve"/>
      <point x="619" y="445"/>
      <point x="957" y="510"/>
      <point x="957" y="755" type="curve" smooth="yes"/>
      <point x="957" y="922"/>
      <point x="820" y="1052"/>
      <point x="613" y="1052" type="curve" smooth="yes"/>
      <point x="296" y="1052"/>
      <point x="112" y="803"/>
      <point x="112" y="505" type="curve" smooth="yes"/>
      <point x="112" y="168"/>
      <point x="339" y="-22"/>
    </contour>
    <contour>
      <point x="285" y="566" type="curve"/>
      <point x="299" y="794"/>
      <point x="448.208" y="916"/>
      <point x="614" y="916" type="curve" smooth="yes"/>
      <point x="729" y="916"/>
      <point x="794" y="852"/>
      <point x="794" y="758" type="curve" smooth="yes"/>
      <point x="794" y="597"/>
      <point x="518" y="566"/>
    </contour>
  </outline>
</glyph>
<glyph name="f" format="1">
  <advance width="711"/>
  <unicode hex="0066"/>
  <outline>
    <contour>
      <point x="425" y="0" type="line"/>
      <point x="425" y="919" type="line"/>
      <point x="671" y="919" type="line"/>
      <point x="671" y="1026" type="line"/>
      <point x="425" y="1026" type="line"/>
      <point x="425" y="1206" type="line" smooth="yes"/>
      <point x="425" y="1355"/>
      <point x="472" y="1429"/>
      <point x="594" y="1429" type="curve" smooth="yes"/>
      <point x="634" y="1429"/>
      <point x="681" y="1421"/>
      <point x="737" y="1406" type="curve"/>
      <point x="759" y="1526" type="line"/>
      <point x="687" y="1546"/>
      <point x="624" y="1555"/>
      <point x="569" y="1555" type="curve" smooth="yes"/>
      <point x="345" y="1555"/>
      <point x="266" y="1398"/>
      <point x="266" y="1194" type="curve" smooth="yes"/>
      <point x="266" y="1026" type="line"/>
      <point x="64" y="1026" type="line"/>
      <point x="64" y="919" type="line"/>
      <point x="266" y="919" type="line"/>
      <point x="266" y="0" type="line"/>
    </contour>
  </outline>
</glyph>
<glyph name="h" format="1">
  <advance width="1233"/>
  <unicode hex="0068"/>
  <outline>
    <contour>
      <point x="1168" y="-20" type="line"/>
      <point x="1189" y="110" type="line"/>
      <point x="1165" y="110" type="line" smooth="yes"/>
      <point x="1062" y="110"/>
      <point x="1030" y="172"/>
      <point x="1030" y="320" type="curve" smooth="yes"/>
      <point x="1030" y="569" type="line" smooth="yes"/>
      <point x="1030" y="907"/>
      <point x="905" y="1052"/>
      <point x="681" y="1052" type="curve" smooth="yes"/>
      <point x="535" y="1052"/>
      <point x="395" y="984"/>
      <point x="328" y="867" type="curve"/>
      <point x="328" y="1526" type="line"/>
      <point x="164" y="1526" type="line"/>
      <point x="164" y="0" type="line"/>
      <point x="328" y="0" type="line"/>
      <point x="328" y="545" type="line" smooth="yes"/>
      <point x="328" y="794"/>
      <point x="514" y="916"/>
      <point x="660" y="916" type="curve" smooth="yes"/>
      <point x="808" y="916"/>
      <point x="866" y="812"/>
      <point x="866" y="566" type="curve" smooth="yes"/>
      <point x="866" y="294" type="line" smooth="yes"/>
      <point x="866" y="74"/>
      <point x="947" y="-20"/>
      <point x="1155" y="-20" type="curve" smooth="yes"/>
    </contour>
  </outline>
</glyph>
<glyph name="i" format="1">
  <advance width="633"/>
  <unicode hex="0069"/>
  <outline>
    <contour>
      <point x="659" y="26" type="curve"/>
      <point x="636" y="145" type="line"/>
      <point x="500" y="96"/>
      <point x="357" y="74"/>
      <point x="357" y="267" type="curve" smooth="yes"/>
      <point x="357" y="1026" type="line"/>
      <point x="193" y="1026" type="line"/>
      <point x="193" y="262" type="line" smooth="yes"/>
      <point x="193" y="-19"/>
      <point x="427" y="-69"/>
    </contour>
    <contour>
      <point x="277" y="1257" type="curve" smooth="yes"/>
      <point x="331" y="1257"/>
      <point x="385" y="1290"/>
      <point x="385" y="1356" type="curve" smooth="yes"/>
      <point x="385" y="1422"/>
      <point x="332" y="1456"/>
      <point x="278" y="1456" type="curve" smooth="yes"/>
      <point x="224" y="1456"/>
      <point x="170" y="1423"/>
      <point x="170" y="1357" type="curve" smooth="yes"/>
      <point x="170" y="1291"/>
      <point x="223" y="1257"/>
    </contour>
  </outline>
</glyph>
<glyph name="j" format="1">
  <advance width="558"/>
  <unicode hex="006A"/>
  <outline>
    <contour>
      <point x="298" y="1236" type="curve" smooth="yes"/>
      <point x="357" y="1236"/>
      <point x="417" y="1273"/>
      <point x="417" y="1346" type="curve" smooth="yes"/>
      <point x="417" y="1420"/>
      <point x="358" y="1458"/>
      <point x="299" y="1458" type="curve" smooth="yes"/>
      <point x="239" y="1458"/>
      <point x="179" y="1421"/>
      <point x="179" y="1347" type="curve" smooth="yes"/>
      <point x="179" y="1274"/>
      <point x="238" y="1236"/>
    </contour>
    <contour>
      <point x="101" y="-464" type="curve" smooth="yes"/>
      <point x="302" y="-464"/>
      <point x="381" y="-360"/>
      <point x="381" y="-84" type="curve" smooth="yes"/>
      <point x="381" y="1026" type="line"/>
      <point x="216" y="1026" type="line"/>
      <point x="216" y="-76" type="line" smooth="yes"/>
      <point x="216" y="-269"/>
      <point x="189" y="-329"/>
      <point x="78" y="-329" type="curve" smooth="yes"/>
      <point x="20" y="-329"/>
      <point x="-35" y="-311"/>
      <point x="-35" y="-311" type="curve"/>
      <point x="-50" y="-443" type="line"/>
      <point x="-17" y="-452"/>
      <point x="44" y="-464"/>
    </contour>
  </outline>
</glyph>
<glyph name="k" format="1">
  <advance width="1047"/>
  <unicode hex="006B"/>
  <outline>
    <contour>
      <point x="1052" y="0" type="line"/>
      <point x="498" y="513" type="line"/>
      <point x="990" y="1026" type="line"/>
      <point x="783" y="1026" type="line"/>
      <point x="287" y="505" type="line"/>
      <point x="835" y="0" type="line"/>
    </contour>
    <contour>
      <point x="336" y="0" type="line"/>
      <point x="336" y="1526" type="line"/>
      <point x="172" y="1526" type="line"/>
      <point x="172" y="0" type="line"/>
    </contour>
  </outline>
</glyph>
<glyph name="m" format="1">
  <advance width="1924"/>
  <unicode hex="006D"/>
  <outline>
    <contour>
      <point x="1855" y="-14" type="line"/>
      <point x="1882" y="121" type="line"/>
      <point x="1851" y="121" type="line" smooth="yes"/>
      <point x="1729" y="121"/>
      <point x="1715" y="180"/>
      <point x="1715" y="353" type="curve" smooth="yes"/>
      <point x="1715" y="577" type="line" smooth="yes"/>
      <point x="1715" y="915"/>
      <point x="1586" y="1052"/>
      <point x="1368" y="1052" type="curve" smooth="yes"/>
      <point x="1211" y="1052"/>
      <point x="1075" y="968"/>
      <point x="997" y="828" type="curve"/>
      <point x="959" y="945"/>
      <point x="867" y="1052"/>
      <point x="702" y="1052" type="curve" smooth="yes"/>
      <point x="524" y="1052"/>
      <point x="408" y="967"/>
      <point x="335" y="832" type="curve"/>
      <point x="328" y="905"/>
      <point x="265" y="989"/>
      <point x="218" y="1026" type="curve"/>
      <point x="76" y="945" type="line"/>
      <point x="130" y="898"/>
      <point x="199" y="813"/>
      <point x="199" y="680" type="curve" smooth="yes"/>
      <point x="199" y="0" type="line"/>
      <point x="363" y="0" type="line"/>
      <point x="363" y="529" type="line" smooth="yes"/>
      <point x="363" y="784"/>
      <point x="497" y="916"/>
      <point x="667" y="916" type="curve" smooth="yes"/>
      <point x="815" y="916"/>
      <point x="881" y="805"/>
      <point x="881" y="566" type="curve" smooth="yes"/>
      <point x="881" y="0" type="line"/>
      <point x="1045" y="0" type="line"/>
      <point x="1045" y="536" type="line" smooth="yes"/>
      <point x="1045" y="803"/>
      <point x="1196" y="916"/>
      <point x="1342" y="916" type="curve" smooth="yes"/>
      <point x="1492" y="916"/>
      <point x="1551" y="825"/>
      <point x="1551" y="579" type="curve" smooth="yes"/>
      <point x="1551" y="324" type="line" smooth="yes"/>
      <point x="1551" y="96"/>
      <point x="1619" y="-14"/>
      <point x="1830" y="-14" type="curve" smooth="yes"/>
    </contour>
  </outline>
</glyph>
<glyph name="n" format="1">
  <advance width="1275"/>
  <unicode hex="006E"/>
  <outline>
    <contour>
      <point x="1233" y="121" type="line"/>
      <point x="1194" y="121" type="line" smooth="yes"/>
      <point x="1089" y="121"/>
      <point x="1066" y="181"/>
      <point x="1066" y="311" type="curve" smooth="yes"/>
      <point x="1066" y="588" type="line" smooth="yes"/>
      <point x="1066" y="918"/>
      <point x="908" y="1052"/>
      <point x="712" y="1052" type="curve" smooth="yes"/>
      <point x="532" y="1052"/>
      <point x="409" y="961"/>
      <point x="338" y="833" type="curve"/>
      <point x="327" y="911"/>
      <point x="282" y="978"/>
      <point x="230" y="1023" type="curve"/>
      <point x="88" y="941" type="line"/>
      <point x="136" y="901"/>
      <point x="211" y="817"/>
      <point x="211" y="683" type="curve" smooth="yes"/>
      <point x="211" y="0" type="line"/>
      <point x="375" y="0" type="line"/>
      <point x="375" y="522" type="line" smooth="yes"/>
      <point x="375" y="800"/>
      <point x="531" y="916"/>
      <point x="679" y="916" type="curve" smooth="yes"/>
      <point x="824" y="916"/>
      <point x="902" y="826"/>
      <point x="902" y="580" type="curve" smooth="yes"/>
      <point x="902" y="338" type="line" smooth="yes"/>
      <point x="902" y="112"/>
      <point x="956" y="-14"/>
      <point x="1178" y="-14" type="curve" smooth="yes"/>
      <point x="1206" y="-14" type="line"/>
    </contour>
  </outline>
</glyph>
<glyph name="o" format="1">
  <advance width="1216"/>
  <unicode hex="006F"/>
  <outline>
    <contour>
      <point x="613" y="114" type="curve" smooth="yes"/>
      <point x="807" y="114"/>
      <point x="933" y="277"/>
      <point x="933" y="515" type="curve" smooth="yes"/>
      <point x="933" y="756"/>
      <point x="807" y="916"/>
      <point x="612" y="916" type="curve" smooth="yes"/>
      <point x="414" y="916"/>
      <point x="282" y="755"/>
      <point x="282" y="513" type="curve" smooth="yes"/>
      <point x="282" y="276"/>
      <point x="414" y="114"/>
    </contour>
    <contour>
      <point x="613" y="-22" type="curve" smooth="yes"/>
      <point x="320" y="-22"/>
      <point x="112" y="191"/>
      <point x="112" y="511" type="curve" smooth="yes"/>
      <point x="112" y="833"/>
      <point x="320" y="1052"/>
      <point x="612" y="1052" type="curve" smooth="yes"/>
      <point x="900" y="1052"/>
      <point x="1104" y="834"/>
      <point x="1104" y="513" type="curve" smooth="yes"/>
      <point x="1104" y="192"/>
      <point x="901" y="-22"/>
    </contour>
  </outline>
</glyph>
<glyph name="u" format="1">
  <advance width="1220"/>
  <unicode hex="0075"/>
  <outline>
    <contour>
      <point x="522" y="-22" type="curve" smooth="yes"/>
      <point x="674" y="-22"/>
      <point x="787" y="37"/>
      <point x="862" y="161" type="curve"/>
      <point x="892" y="32"/>
      <point x="986" y="-14"/>
      <point x="1123" y="-14" type="curve"/>
      <point x="1152" y="121" type="line"/>
      <point x="1026" y="121"/>
      <point x="1007" y="182"/>
      <point x="1007" y="328" type="curve" smooth="yes"/>
      <point x="1007" y="1026" type="line"/>
      <point x="843" y="1026" type="line"/>
      <point x="843" y="482" type="line" smooth="yes"/>
      <point x="843" y="259"/>
      <point x="707" y="114"/>
      <point x="542" y="114" type="curve" smooth="yes"/>
      <point x="426" y="114"/>
      <point x="320" y="167"/>
      <point x="325" y="365" type="curve" smooth="yes"/>
      <point x="331" y="583" type="line" smooth="yes"/>
      <point x="339" y="878"/>
      <point x="323" y="1026"/>
      <point x="323" y="1026" type="curve"/>
      <point x="158" y="1026" type="line"/>
      <point x="158" y="1026"/>
      <point x="172" y="797"/>
      <point x="166" y="582" type="curve" smooth="yes"/>
      <point x="160" y="365" type="line" smooth="yes"/>
      <point x="152" y="80"/>
      <point x="336" y="-22"/>
    </contour>
  </outline>
</glyph>
<glyph name="v" format="1">
  <advance width="1050"/>
  <unicode hex="0076"/>
  <outline>
    <contour>
      <point x="443" y="0" type="line"/>
      <point x="21" y="1026" type="line"/>
      <point x="203" y="1026" type="line"/>
      <point x="477" y="336" type="line" smooth="yes"/>
      <point x="496" y="290"/>
      <point x="519" y="217"/>
      <point x="535" y="163" type="curve"/>
      <point x="566" y="264"/>
      <point x="579" y="309"/>
      <point x="591" y="336" type="curve"/>
      <point x="852" y="1026" type="line"/>
      <point x="1029" y="1026" type="line"/>
      <point x="611" y="0" type="line"/>
    </contour>
  </outline>
</glyph>
<glyph name="y" format="1">
  <advance width="1196"/>
  <unicode hex="0079"/>
  <outline>
    <contour>
      <point x="555" y="-494" type="curve" smooth="yes"/>
      <point x="842" y="-494"/>
      <point x="1040" y="-306"/>
      <point x="1040" y="-23" type="curve" smooth="yes"/>
      <point x="1040" y="1026" type="line"/>
      <point x="876" y="1026" type="line"/>
      <point x="876" y="427" type="line" smooth="yes"/>
      <point x="876" y="230"/>
      <point x="741" y="114"/>
      <point x="583" y="114" type="curve" smooth="yes"/>
      <point x="467" y="114"/>
      <point x="339" y="167"/>
      <point x="344" y="365" type="curve" smooth="yes"/>
      <point x="350" y="595" type="line" smooth="yes"/>
      <point x="359" y="941"/>
      <point x="291" y="1026"/>
      <point x="291" y="1026" type="curve"/>
      <point x="126" y="1000" type="line"/>
      <point x="126" y="1000"/>
      <point x="194" y="901"/>
      <point x="185" y="582" type="curve" smooth="yes"/>
      <point x="179" y="365" type="line" smooth="yes"/>
      <point x="171" y="80"/>
      <point x="373" y="-22"/>
      <point x="559" y="-22" type="curve" smooth="yes"/>
      <point x="745" y="-22"/>
      <point x="861" y="73"/>
      <point x="936" y="198" type="curve"/>
      <point x="876" y="219" type="line"/>
      <point x="876" y="-44" type="line" smooth="yes"/>
      <point x="876" y="-232"/>
      <point x="742" y="-357"/>
      <point x="541" y="-357" type="curve" smooth="yes"/>
      <point x="456" y="-357"/>
      <point x="338" y="-326"/>
      <point x="246" y="-280" type="curve"/>
      <point x="227" y="-433" type="line"/>
      <point x="328" y="-470"/>
      <point x="458" y="-494"/>
    </contour>
  </outline>
</glyph>
<glyph name="sterling" format="1">
  <advance width="1244"/>
  <unicode hex="00A3"/>
  <outline>
    <contour>
      <point x="215" y="0" type="line"/>
      <point x="1134" y="0" type="line"/>
      <point x="1134" y="141" type="line"/>
      <point x="408" y="141" type="line"/>
      <point x="502" y="217"/>
      <point x="545" y="352"/>
      <point x="545" y="551" type="curve" smooth="yes"/>
      <point x="545" y="660" type="line"/>
      <point x="860" y="660" type="line"/>
      <point x="860" y="792" type="line"/>
      <point x="543" y="792" type="line"/>
      <point x="543" y="982" type="line" smooth="yes"/>
      <point x="543" y="1191"/>
      <point x="600" y="1331"/>
      <point x="800" y="1331" type="curve" smooth="yes"/>
      <point x="907" y="1331"/>
      <point x="993" y="1304"/>
      <point x="1063" y="1261" type="curve"/>
      <point x="1115" y="1392" type="line"/>
      <point x="1038" y="1453"/>
      <point x="929" y="1483"/>
      <point x="790" y="1483" type="curve" smooth="yes"/>
      <point x="494" y="1483"/>
      <point x="371" y="1276"/>
      <point x="371" y="926" type="curve" smooth="yes"/>
      <point x="371" y="792" type="line"/>
      <point x="189" y="792" type="line"/>
      <point x="189" y="660" type="line"/>
      <point x="372" y="660" type="line"/>
      <point x="372" y="500" type="line" smooth="yes"/>
      <point x="372" y="332"/>
      <point x="319" y="199"/>
      <point x="215" y="138" type="curve"/>
    </contour>
  </outline>
</glyph>
<glyph name="yen" format="1">
  <advance width="1235"/>
  <unicode hex="00A5"/>
  <outline>
    <component base="Y"/>
    <contour>
      <point x="167" y="283" type="line"/>
      <point x="167" y="403" type="line"/>
      <point x="546" y="403" type="line"/>
      <point x="546" y="574" type="line"/>
      <point x="161" y="574" type="line"/>
      <point x="161" y="696" type="line"/>
      <point x="1065" y="696" type="line"/>
      <point x="1065" y="574" type="line"/>
      <point x="687" y="574" type="line"/>
      <point x="687" y="403" type="line"/>
      <point x="1068" y="403" type="line"/>
      <point x="1068" y="283" type="line"/>
    </contour>
  </outline>
</glyph>
<glyph name="section" format="1">
  <advance width="1044"/>
  <unicode hex="00A7"/>
  <outline>
    <contour>
      <point x="486" y="-24" type="curve" smooth="yes"/>
      <point x="698.367" y="-24"/>
      <point x="882" y="57.3796"/>
      <point x="882" y="269" type="curve" smooth="yes"/>
      <point x="882" y="392"/>
      <point x="804" y="449"/>
      <point x="719" y="491" type="curve"/>
      <point x="802" y="541"/>
      <point x="905" y="614"/>
      <point x="905" y="742" type="curve" smooth="yes"/>
      <point x="905" y="930.579"/>
      <point x="661.494" y="984.823"/>
      <point x="509" y="1069" type="curve" smooth="yes"/>
      <point x="453" y="1100"/>
      <point x="401" y="1135"/>
      <point x="401" y="1215" type="curve" smooth="yes"/>
      <point x="401" y="1319"/>
      <point x="502" y="1346"/>
      <point x="607" y="1346" type="curve" smooth="yes"/>
      <point x="688" y="1346"/>
      <point x="768" y="1323"/>
      <point x="828" y="1296" type="curve"/>
      <point x="826" y="1440" type="line"/>
      <point x="751" y="1462"/>
      <point x="691" y="1480"/>
      <point x="602" y="1480" type="curve" smooth="yes"/>
      <point x="410" y="1480"/>
      <point x="230" y="1405"/>
      <point x="230" y="1211" type="curve" smooth="yes"/>
      <point x="230" y="1087"/>
      <point x="298" y="1025"/>
      <point x="383" y="974" type="curve"/>
      <point x="295" y="931"/>
      <point x="194" y="861"/>
      <point x="194" y="734" type="curve" smooth="yes"/>
      <point x="194" y="599.123"/>
      <point x="309" y="518"/>
      <point x="428" y="466" type="curve" smooth="yes"/>
      <point x="508" y="431" type="line" smooth="yes"/>
      <point x="612.838" y="385.134"/>
      <point x="710" y="370.829"/>
      <point x="710" y="260" type="curve" smooth="yes"/>
      <point x="710" y="171.73"/>
      <point x="608.281" y="110"/>
      <point x="481" y="110" type="curve" smooth="yes"/>
      <point x="381" y="110"/>
      <point x="302" y="136"/>
      <point x="219" y="172" type="curve"/>
      <point x="221" y="27" type="line"/>
      <point x="297" y="-4"/>
      <point x="388" y="-24"/>
    </contour>
    <contour>
      <point x="591" y="557" type="curve"/>
      <point x="484.087" y="599.117"/>
      <point x="371" y="621.604"/>
      <point x="371" y="746" type="curve" smooth="yes"/>
      <point x="371" y="834"/>
      <point x="441" y="889"/>
      <point x="499" y="920" type="curve"/>
      <point x="576" y="887"/>
      <point x="727" y="849"/>
      <point x="727" y="728" type="curve" smooth="yes"/>
      <point x="727" y="648.828"/>
      <point x="652.841" y="596.473"/>
    </contour>
  </outline>
</glyph>
<glyph name="copyright" format="1">
  <advance width="1736"/>
  <unicode hex="00A9"/>
  <outline>
    <contour>
      <point x="893" y="249" type="curve" smooth="yes"/>
      <point x="1008" y="249"/>
      <point x="1106" y="279"/>
      <point x="1189" y="339" type="curve"/>
      <point x="1152" y="460" type="line"/>
      <point x="1094" y="411"/>
      <point x="1020" y="380"/>
      <point x="923" y="380" type="curve" smooth="yes"/>
      <point x="712" y="380"/>
      <point x="579" y="504"/>
      <point x="579" y="733" type="curve" smooth="yes"/>
      <point x="579" y="920"/>
      <point x="687" y="1080"/>
      <point x="897" y="1080" type="curve" smooth="yes"/>
      <point x="1000" y="1080"/>
      <point x="1086" y="1048"/>
      <point x="1156" y="985" type="curve"/>
      <point x="1186" y="1105" type="line"/>
      <point x="1108" y="1174"/>
      <point x="1013" y="1208"/>
      <point x="903" y="1208" type="curve" smooth="yes"/>
      <point x="634" y="1208"/>
      <point x="426" y="1042"/>
      <point x="426" y="729" type="curve" smooth="yes"/>
      <point x="426" y="473"/>
      <point x="598" y="249"/>
    </contour>
    <contour>
      <point x="868" y="1480" type="curve" smooth="yes"/>
      <point x="454" y="1480"/>
      <point x="116" y="1141"/>
      <point x="116" y="727" type="curve" smooth="yes"/>
      <point x="116" y="314"/>
      <point x="454" y="-25"/>
      <point x="868" y="-25" type="curve" smooth="yes"/>
      <point x="1282" y="-25"/>
      <point x="1620" y="314"/>
      <point x="1620" y="727" type="curve" smooth="yes"/>
      <point x="1620" y="1141"/>
      <point x="1282" y="1480"/>
    </contour>
    <contour>
      <point x="867" y="80" type="curve" smooth="yes"/>
      <point x="515" y="80"/>
      <point x="237" y="374"/>
      <point x="237" y="725" type="curve" smooth="yes"/>
      <point x="237" y="1077"/>
      <point x="515" y="1371"/>
      <point x="867" y="1371" type="curve" smooth="yes"/>
      <point x="1218" y="1371"/>
      <point x="1496" y="1077"/>
      <point x="1496" y="725" type="curve" smooth="yes"/>
      <point x="1496" y="374"/>
      <point x="1218" y="80"/>
    </contour>
  </outline>
</glyph>
<glyph name="guillemotleft" format="1">
  <advance width="1153"/>
  <unicode hex="00AB"/>
  <outline>
    <contour>
      <point x="494" y="173" type="line"/>
      <point x="226" y="543" type="line"/>
      <point x="500" y="916" type="line"/>
      <point x="653" y="916" type="line"/>
      <point x="396" y="543" type="line"/>
      <point x="645" y="173" type="line"/>
    </contour>
    <contour>
      <point x="853" y="173" type="line"/>
      <point x="591" y="543" type="line"/>
      <point x="858" y="916" type="line"/>
      <point x="1017" y="916" type="line"/>
      <point x="754" y="543" type="line"/>
      <point x="1010" y="173" type="line"/>
    </contour>
  </outline>
</glyph>
<glyph name="plusminus" format="1">
  <advance width="1451"/>
  <unicode hex="00B1"/>
  <outline>
    <contour>
      <point x="649" y="308" type="line"/>
      <point x="649" y="680" type="line"/>
      <point x="210" y="680" type="line"/>
      <point x="210" y="818" type="line"/>
      <point x="647" y="818" type="line"/>
      <point x="647" y="1192" type="line"/>
      <point x="796" y="1192" type="line"/>
      <point x="796" y="818" type="line"/>
      <point x="1238" y="818" type="line"/>
      <point x="1238" y="680" type="line"/>
      <point x="799" y="680" type="line"/>
      <point x="799" y="308" type="line"/>
    </contour>
    <contour>
      <point x="210" y="0" type="line"/>
      <point x="210" y="138" type="line"/>
      <point x="1242" y="138" type="line"/>
      <point x="1242" y="0" type="line"/>
    </contour>
  </outline>
</glyph>
<glyph name="uni00B2" format="1">
  <advance width="1200"/>
  <unicode hex="00B2"/>
  <outline>
    <contour>
      <point x="293" y="604" type="line"/>
      <point x="839" y="604" type="line"/>
      <point x="839" y="722" type="line"/>
      <point x="475" y="722" type="line"/>
      <point x="567" y="802"/>
      <point x="660" y="879"/>
      <point x="734" y="968" type="curve" smooth="yes"/>
      <point x="788" y="1033"/>
      <point x="840" y="1108"/>
      <point x="840" y="1213" type="curve" smooth="yes"/>
      <point x="840" y="1248"/>
      <point x="833" y="1279"/>
      <point x="820" y="1307" type="curve" smooth="yes"/>
      <point x="781" y="1388"/>
      <point x="695" y="1440"/>
      <point x="577" y="1440" type="curve" smooth="yes"/>
      <point x="439" y="1440"/>
      <point x="344" y="1370"/>
      <point x="301" y="1270" type="curve"/>
      <point x="386" y="1192" type="line"/>
      <point x="419" y="1262"/>
      <point x="476" y="1323"/>
      <point x="571" y="1323" type="curve" smooth="yes"/>
      <point x="650" y="1323"/>
      <point x="711" y="1286"/>
      <point x="711" y="1211" type="curve" smooth="yes"/>
      <point x="711" y="1183"/>
      <point x="701" y="1152"/>
      <point x="680" y="1118" type="curve" smooth="yes"/>
      <point x="659" y="1084"/>
      <point x="631" y="1047"/>
      <point x="594" y="1006" type="curve" smooth="yes"/>
      <point x="505" y="908"/>
      <point x="399" y="812"/>
      <point x="293" y="715" type="curve"/>
    </contour>
  </outline>
</glyph>
<glyph name="onehalf" format="1">
  <advance width="2185"/>
  <unicode hex="00BD"/>
  <outline>
    <contour>
      <point x="499" y="0" type="line"/>
      <point x="1332" y="1456" type="line"/>
      <point x="1481" y="1456" type="line"/>
      <point x="650" y="0" type="line"/>
    </contour>
    <contour>
      <point x="369" y="426" type="line"/>
      <point x="510" y="426" type="line"/>
      <point x="510" y="1456" type="line"/>
      <point x="284" y="1456" type="line"/>
      <point x="284" y="1351" type="line"/>
      <point x="369" y="1351" type="line"/>
    </contour>
    <contour>
      <point x="1667" y="1052" type="curve" smooth="yes"/>
      <point x="1847" y="1052"/>
      <point x="1970" y="930"/>
      <point x="1975" y="747" type="curve" smooth="yes"/>
      <point x="1979" y="597"/>
      <point x="1880" y="489"/>
      <point x="1756" y="344" type="curve" smooth="yes"/>
      <point x="1564" y="119" type="line"/>
      <point x="1955" y="119" type="line"/>
      <point x="1955" y="0" type="line"/>
      <point x="1396" y="0" type="line"/>
      <point x="1396" y="126" type="line"/>
      <point x="1674" y="451" type="line" smooth="yes"/>
      <point x="1781" y="577"/>
      <point x="1829" y="652"/>
      <point x="1824" y="752" type="curve" smooth="yes"/>
      <point x="1819" y="861"/>
      <point x="1768" y="926"/>
      <point x="1663" y="926" type="curve" smooth="yes"/>
      <point x="1524" y="926"/>
      <point x="1435" y="832"/>
      <point x="1435" y="833" type="curve" smooth="yes"/>
      <point x="1377" y="950" type="line"/>
      <point x="1377" y="950"/>
      <point x="1476" y="1052"/>
    </contour>
  </outline>
</glyph>
<glyph name="Eth" format="1">
  <advance width="1518"/>
  <unicode hex="00D0"/>
  <outline>
    <component base="D"/>
    <contour>
      <point x="43" y="800" type="line"/>
      <point x="610" y="800" type="line"/>
      <point x="610" y="672" type="line"/>
      <point x="43" y="672" type="line"/>
    </contour>
  </outline>
</glyph>
<glyph name="multiply" format="1">
  <advance width="1340"/>
  <unicode hex="00D7"/>
  <outline>
    <contour>
      <point x="379" y="154" type="line"/>
      <point x="276" y="257" type="line"/>
      <point x="570" y="554" type="line"/>
      <point x="276" y="851" type="line"/>
      <point x="379" y="954" type="line"/>
      <point x="670" y="657" type="line"/>
      <point x="960" y="954" type="line"/>
      <point x="1064" y="850" type="line"/>
      <point x="769" y="554" type="line"/>
      <point x="1064" y="258" type="line"/>
      <point x="960" y="154" type="line"/>
      <point x="670" y="450" type="line"/>
    </contour>
  </outline>
</glyph>
<glyph name="hbar" format="1">
  <advance width="1233"/>
  <unicode hex="0127"/>
  <outline>
    <contour>
      <point x="55" y="1206.9" type="line"/>
      <point x="606" y="1206.9" type="line"/>
      <point x="606" y="1340.9" type="line"/>
      <point x="55" y="1340.9" type="line"/>
    </contour>
    <component base="h"/>
  </outline>
</glyph>
<glyph name="dotlessi" format="1">
  <advance width="633"/>
  <unicode hex="0131"/>
  <outline>
    <contour>
      <point x="659" y="26" type="curve"/>
      <point x="636" y="145" type="line"/>
      <point x="500" y="96"/>
      <point x="357" y="74"/>
      <point x="357" y="267" type="curve" smooth="yes"/>
      <point x="357" y="1026" type="line"/>
      <point x="193" y="1026" type="line"/>
      <point x="193" y="262" type="line" smooth="yes"/>
      <point x="193" y="-19"/>
      <point x="427" y="-69"/>
    </contour>
  </outline>
</glyph>
<glyph name="quoteright" format="1">
  <advance width="563"/>
  <unicode hex="2019"/>
  <outline>
    <contour>
      <point x="150" y="1016" type="line"/>
      <point x="255" y="1456" type="line"/>
      <point x="436" y="1456" type="line"/>
      <point x="282" y="1016" type="line"/>
    </contour>
  </outline>
</glyph>
<glyph name="dagger" format="1">
  <advance width="1024"/>
  <unicode hex="2020"/>
  <outline>
    <contour>
      <point x="440" y="0" type="line"/>
      <point x="440" y="904" type="line"/>
      <point x="117" y="904" type="line"/>
      <point x="117" y="1026" type="line"/>
      <point x="440" y="1026" type="line"/>
      <point x="440" y="1456" type="line"/>
      <point x="581" y="1456" type="line"/>
      <point x="581" y="1026" type="line"/>
      <point x="921" y="1026" type="line"/>
      <point x="921" y="904" type="line"/>
      <point x="581" y="904" type="line"/>
      <point x="581" y="0" type="line"/>
    </contour>
  </outline>
</glyph>
<glyph name="f.alt" format="1">
  <advance width="711"/>
  <outline>
    <contour>
      <point x="173" y="-404" type="line"/>
      <point x="403" y="-393"/>
      <point x="425" y="-215"/>
      <point x="425" y="-83" type="curve" smooth="yes"/>
      <point x="425" y="919" type="line"/>
      <point x="671" y="919" type="line"/>
      <point x="671" y="1026" type="line"/>
      <point x="425" y="1026" type="line"/>
      <point x="425" y="1196" type="line" smooth="yes"/>
      <point x="425" y="1393"/>
      <point x="542" y="1406"/>
      <point x="721" y="1406" type="curve"/>
      <point x="721" y="1526" type="line"/>
      <point x="667" y="1526" type="line" smooth="yes"/>
      <point x="404" y="1526"/>
      <point x="266" y="1447"/>
      <point x="266" y="1194" type="curve" smooth="yes"/>
      <point x="266" y="1026" type="line"/>
      <point x="64" y="1026" type="line"/>
      <point x="64" y="919" type="line"/>
      <point x="266" y="919" type="line"/>
      <point x="266" y="-76" type="line" smooth="yes"/>
      <point x="266" y="-227"/>
      <point x="239" y="-255"/>
      <point x="153" y="-269" type="curve"/>
    </contour>
  </outline>
</glyph>
<glyph name="four.alt" format="1">
  <advance width="1240"/>
  <outline>
    <contour>
      <point x="774" y="0" type="line"/>
      <point x="774" y="386" type="line"/>
      <point x="125" y="386" type="line"/>
      <point x="125" y="515" type="line"/>
      <point x="697.876" y="1456" type="line"/>
      <point x="945" y="1456" type="line"/>
      <point x="945" y="520" type="line"/>
      <point x="1163" y="520" type="line"/>
      <point x="1163" y="386" type="line"/>
      <point x="946" y="386" type="line"/>
      <point x="946" y="0" type="line"/>
    </contour>
    <contour>
      <point x="319" y="520" type="line"/>
      <point x="774" y="520" type="line"/>
      <point x="774" y="1287" type="line"/>
      <point x="650.897" y="1080.67" type="line"/>
    </contour>
  </outline>
</glyph>
<glyph name="nine.alt" format="1">
  <advance width="1176"/>
  <outline>
    <contour>
      <point x="517" y="-24" type="curve" smooth="yes"/>
      <point x="885" y="-24"/>
      <point x="1080" y="334.935"/>
      <point x="1080" y="786" type="curve" smooth="yes"/>
      <point x="1080" y="1191.86"/>
      <point x="950" y="1480"/>
      <point x="581" y="1480" type="curve" smooth="yes"/>
      <point x="311" y="1480"/>
      <point x="98" y="1317.31"/>
      <point x="98" y="1012" type="curve" smooth="yes"/>
      <point x="98" y="753.634"/>
      <point x="263.607" y="561"/>
      <point x="547" y="561" type="curve" smooth="yes"/>
      <point x="720" y="561"/>
      <point x="836" y="620"/>
      <point x="905" y="735" type="curve"/>
      <point x="905" y="711" type="line" smooth="yes"/>
      <point x="905" y="409"/>
      <point x="801" y="118"/>
      <point x="520" y="118" type="curve" smooth="yes"/>
      <point x="409" y="118"/>
      <point x="318" y="155"/>
      <point x="247" y="232" type="curve"/>
      <point x="193" y="104" type="line"/>
      <point x="280" y="21"/>
      <point x="371" y="-24"/>
    </contour>
    <contour>
      <point x="572" y="701" type="curve" smooth="yes"/>
      <point x="381" y="701"/>
      <point x="274" y="820"/>
      <point x="274" y="1017" type="curve" smooth="yes"/>
      <point x="274" y="1193.27"/>
      <point x="378.15" y="1340"/>
      <point x="573" y="1340" type="curve" smooth="yes"/>
      <point x="759.118" y="1340"/>
      <point x="893" y="1211.13"/>
      <point x="893" y="999" type="curve" smooth="yes"/>
      <point x="893" y="824.625"/>
      <point x="767.599" y="701"/>
    </contour>
  </outline>
</glyph>
